inDegrees=no
num_controls=7
num_derivatives=13
num_iterations=162
num_multipliers=7
num_parameters=0
num_slacks=7
num_states=26
objective=5.617332
objective_accelerations=0.425533
objective_balance=0.049818
objective_effort=0.400514
objective_height=4.646299
objective_ligament=0.095168
solver_duration=1656.298545
status=Solve_Succeeded
success=true
DataType=double
version=3
OpenSimVersion=4.4-2022-07-23-0e9fedc
endheader
time	/jointset/ground_pelvis/pelvis_tilt/value	/jointset/ground_pelvis/pelvis_tx/value	/jointset/ground_pelvis/pelvis_ty/value	/jointset/hip_l/hip_flexion_l/value	/jointset/hip_l/hip_adduction_l/value	/jointset/hip_l/hip_rotation_l/value	/jointset/back/lumbar_extension/value	/jointset/patellofemoral_l/patellar_flexion_l/value	/jointset/knee_l/knee_flexion_l/value	/jointset/knee_l/knee_adduction_l/value	/jointset/knee_l/knee_rotation_l/value	/jointset/ankle_l/ankle_angle_l/value	/jointset/subtalar_l/subtalar_angle_l/value	/jointset/ground_pelvis/pelvis_tilt/speed	/jointset/ground_pelvis/pelvis_tx/speed	/jointset/ground_pelvis/pelvis_ty/speed	/jointset/hip_l/hip_flexion_l/speed	/jointset/hip_l/hip_adduction_l/speed	/jointset/hip_l/hip_rotation_l/speed	/jointset/back/lumbar_extension/speed	/jointset/patellofemoral_l/patellar_flexion_l/speed	/jointset/knee_l/knee_flexion_l/speed	/jointset/knee_l/knee_adduction_l/speed	/jointset/knee_l/knee_rotation_l/speed	/jointset/ankle_l/ankle_angle_l/speed	/jointset/subtalar_l/subtalar_angle_l/speed	/forceset/tau_hip_flexion_l	/forceset/tau_hip_adduction_l	/forceset/tau_hip_rotation_l	/forceset/tau_knee_flexion_l	/forceset/tau_ankle_angle_l	/forceset/tau_subtalar_angle_l	/forceset/tau_lumbar_extension	lambda_cid13_p0	lambda_cid13_p1	lambda_cid13_p2	lambda_cid13_p3	lambda_cid13_p4	lambda_cid13_p5	lambda_cid14_p0	/jointset/ground_pelvis/pelvis_tilt/accel	/jointset/ground_pelvis/pelvis_tx/accel	/jointset/ground_pelvis/pelvis_ty/accel	/jointset/hip_l/hip_flexion_l/accel	/jointset/hip_l/hip_adduction_l/accel	/jointset/hip_l/hip_rotation_l/accel	/jointset/back/lumbar_extension/accel	/jointset/patellofemoral_l/patellar_flexion_l/accel	/jointset/knee_l/knee_flexion_l/accel	/jointset/knee_l/knee_adduction_l/accel	/jointset/knee_l/knee_rotation_l/accel	/jointset/ankle_l/ankle_angle_l/accel	/jointset/subtalar_l/subtalar_angle_l/accel	gamma_cid13_p0	gamma_cid13_p1	gamma_cid13_p2	gamma_cid13_p3	gamma_cid13_p4	gamma_cid13_p5	gamma_cid14_p0
1	0.01109678879966724	-0.005069681143789289	0.7429933300473238	1.00792614521116	-0.3392275193635937	0.03370951437738602	-0.9599310690802904	1.290852118304388	1.290852118303434	-0.07970665648899881	-0.1745329251994329	0.3646521659144396	0.08994146625307162	0.1174571245525596	0.03102726942953741	0.06237545934300583	-0.3080586679722877	-0.004015547749206747	-0.06630385297757095	-0.002340759988489133	-0.1617622320792562	-0.161762232079257	-0.000819782554578737	-2.031813127373993e-05	0.01947742942733375	0.00506677526972231	-0.2888226025482996	0.04595374503711992	-0.002154568349805289	-0.364622470953428	-0.05143534140526809	0.0327485206835216	0.3810298223950711	-65.74209234603148	-2.750729587933321	0.02879417441311605	18.50057939609804	-782.5094488818496	-72.08287669137434	-0.104644067952327	0.4037539799058312	-0.08388730854943369	1.205428357250454	-3.616600406116118	0.05014510229344251	-1.512304608092731	0.4355760318913665	-4.568663998803425	-4.568663998803257	-0.2198801055851668	-0.01042405615976402	-1.6848750113706	-0.7381379747921419	-1.005554335047607e-08	2.220645654659482e-08	4.927400102327685e-08	9.636240183631694e-09	-2.4783892242474e-08	8.771448805471351e-08	-1.224521386805589e-08
1.01	0.01229096013947508	-0.004763406873469104	0.7436771823591708	1.004665542232623	-0.3392645942870414	0.03297022388110621	-0.9599310642404082	1.289006464979784	1.289006464979096	-0.07972427078508132	-0.1745328935872625	0.3647630905824584	0.08995628530960369	0.1213539811139106	0.03024729460003008	0.07438862400586829	-0.3440516291117693	-0.003395548089562888	-0.08155130542013901	0.002459517393401519	-0.207369137238358	-0.2073691372383618	-0.002705083393887614	2.442831615386539e-05	0.002720537646958824	-0.002090480772622161	-0.2887978322660933	0.04618732512840613	-0.002219045085797896	-0.3641778694375898	-0.05175640502425259	0.03287872607673009	0.3815739995923488	-65.84015304704909	-2.811991097658554	0.06355684085253949	18.21221366151461	-782.8072052007436	-72.13199173175504	-0.1127405856187029	0.3791759432930972	-0.07209234906217485	1.198297200921031	-3.589101283936039	0.06850524842911263	-1.530538310478531	0.5199220109557897	-4.556806061115102	-4.556806061115853	-0.1731635932822619	0.01150700356465989	-1.669142417952761	-0.7026572919633376	-1.781834393858462e-08	1.226056139698422e-08	7.309256830799212e-08	1.854200517221823e-08	-3.225825937405298e-08	8.905547429703497e-08	-1.68176939437695e-08
1.02	0.01352340493471195	-0.00446434030722704	0.7444809736536707	1.001045318179453	-0.3392953536437778	0.03207854431079556	-0.959879522943072	1.286704722146258	1.28670472214585	-0.07976079979358243	-0.1745324944988296	0.3647068371013579	0.0898999042311093	0.125111815636973	0.02958572861391319	0.08636325587338586	-0.379982882894153	-0.002752434404762638	-0.09678166778829186	0.007966531560015309	-0.2529801338635128	-0.2529801338635204	-0.004602725040336167	5.249509839698524e-05	-0.01395820039668322	-0.009173251735278092	-0.2887730619840012	0.04642090521971685	-0.002283521821927856	-0.3637332679217636	-0.05207746864320963	0.03300893146999161	0.3821181767895325	-65.95190897682852	-2.869489232240639	0.09615940645329479	17.98402099734427	-783.2837323884638	-72.16631764135265	-0.1235294485304956	0.375949572248236	-0.06020553987139358	1.197721798181462	-3.604258934696523	0.05476790732462523	-1.508886593209782	0.5769233888363579	-4.56948229201398	-4.569482292013967	-0.2223482670131463	-0.01375998919690132	-1.669244264024109	-0.723240958854613	-2.173739749803088e-08	-2.244616873237309e-10	9.715484411694914e-08	1.952735505248394e-08	-3.607200011174744e-08	8.320504048643042e-08	-2.108527697267655e-08
1.03	0.01479255144080788	-0.00417122594249058	0.7454042094123408	0.9970664255964721	-0.3393195780654319	0.03103479731365566	-0.9597689728129727	1.283947125187431	1.283947125187383	-0.0798164288157187	-0.1745319164252266	0.3644843278533726	0.08977314254282154	0.1286748457204684	0.02906411162364607	0.09826638897319287	-0.4157501313625498	-0.002088713767666351	-0.1119542327266951	0.01430377050991522	-0.2985119313924334	-0.2985119313924186	-0.006525510867645074	5.898138629098642e-05	-0.03051609193185803	-0.01615744126194747	-0.2886119392675252	0.04657001690749771	-0.002371604262424982	-0.3630512069375179	-0.05200596803847204	0.03318415891725011	0.3826130345026316	-65.90343893435139	-2.986117481507202	0.1513509999062452	17.51043686831928	-783.3810693889076	-72.24246058234351	-0.1374665713369126	0.3400821507199741	-0.04409059331278085	1.183975040112514	-3.55613510914785	0.07272284369536423	-1.519438398215623	0.6861655556223734	-4.54092441090003	-4.540924410897002	-0.1776208154383073	0.007257786712076243	-1.644930357372907	-0.6827733140560542	-2.561722914902137e-08	-1.27353942403531e-08	1.212196067475821e-07	2.04318843704198e-08	-3.984838751889203e-08	7.728122483855106e-08	-2.534974880722843e-08
1.04	0.01609604873261623	-0.003882517910599447	0.7464459496968561	0.9927312250675409	-0.3393370555403672	0.02983972527634138	-0.9595902420118567	1.280735031067801	1.280735031068124	-0.07989136111108899	-0.1745313925189712	0.364097065938215	0.089577185886369	0.131981972776723	0.02870446204484777	0.1100641610422889	-0.4512444720804427	-0.001403045058854588	-0.1270466758274952	0.02160266576204165	-0.3438795660240997	-0.3438795660240659	-0.008463379688893904	4.166163135651505e-05	-0.04690873383137377	-0.02301224536793527	-0.2884508165511597	0.04671912859530082	-0.002459686703064021	-0.3623691459532821	-0.05193446743370688	0.03335938636455842	0.3831078922156404	-65.8686261358359	-3.099125689228794	0.2045614677141745	17.09481885786736	-783.6573168560935	-72.3050561017906	-0.1550798278982034	0.3247689668002521	-0.02781205757766733	1.176649592039238	-3.549677384595705	0.05915752166747632	-1.492862225689411	0.7692546492817169	-4.53664971256305	-4.536649712563722	-0.2253648658012289	-0.01852119776319683	-1.636194336892384	-0.6973638747186957	-2.964779162818286e-08	-2.764940185281122e-08	1.405982505002662e-07	2.174107760468879e-08	-4.563276060429511e-08	6.528206291620928e-08	-2.850367568302729e-08
1.05	0.01743140051374114	-0.003596594328263774	0.747605136184563	0.9880423514784564	-0.3393475298054749	0.02849416870427413	-0.9593337782630549	1.277069998653944	1.277069998654581	-0.07998576942527667	-0.1745311012982979	0.3635466557781092	0.08931337992162554	0.1350511956335293	0.02850758515017385	0.1217550376609033	-0.4864933226787068	-0.0006832275095407236	-0.1420537507047374	0.02984544109010625	-0.3891078204144482	-0.389107820414439	-0.010415204556197	1.860561980114103e-05	-0.06315010209376487	-0.02972013333395734	-0.2882063852397156	0.04690638610661351	-0.002572970038967346	-0.3613971969228383	-0.05185492866817905	0.03357883398235804	0.3835154694527104	-65.81252315549607	-3.244704469750735	0.2739739390800008	16.64915787814525	-783.6968556644679	-72.38927067372212	-0.1769932186327922	0.2924190269007826	-0.01152127054347576	1.162581515922912	-3.506953486230806	0.07966430316503313	-1.503025450232505	0.8750925385091137	-4.513042496114027	-4.513042496117676	-0.1796463738493096	0.00613731225214736	-1.614632515000311	-0.6531909184510408	-3.368306444572469e-08	-4.263850556087649e-08	1.598304530380145e-07	2.306291658634319e-08	-5.147988324214375e-08	5.309304642279059e-08	-3.162289802886512e-08
1.06	0.0187963285398113	-0.003311818667902114	0.7488806864022871	0.9830020964656243	-0.3393505518087772	0.0269988623171454	-0.9589902260481792	1.272953257857415	1.27295325785837	-0.08009960700346772	-0.1745309736145887	0.3628345270465635	0.08898335714503895	0.1378972217614949	0.02847487765004476	0.1333369070455681	-0.5215207568285659	8.740730383713896e-05	-0.1569966388416077	0.03902035897578568	-0.4342212425585134	-0.434221242558529	-0.01234923248967668	8.954212396071657e-06	-0.07925244811965843	-0.0362556077362586	-0.28796195392835	0.04709364361791954	-0.002686253375005934	-0.3604252478923988	-0.05177538990263495	0.03379828160015847	0.3839230466897207	-65.77007144113671	-3.386796865343372	0.3415780702510058	16.25837646608939	-783.9162612580737	-72.46143114956205	-0.2038908171101726	0.2801296210323283	0.00502182133120808	1.154848145249278	-3.505394094914648	0.06932097448012764	-1.480024877615188	0.9556831608047741	-4.513683263306334	-4.513683263307032	-0.2218054790366057	-0.0158402769335098	-1.608389889593023	-0.6628811619748147	-3.651426572633522e-08	-5.667053162941658e-08	1.771621297254113e-07	2.243009664855555e-08	-5.480552866775462e-08	4.115105501848171e-08	-3.458208367627302e-08
1.07	0.0201886124807233	-0.003026573911475566	0.7502714232935346	0.977612871533195	-0.3393456448212164	0.02535468448769669	-0.9585504740926309	1.268386136617885	1.268386136618579	-0.08023291306450032	-0.1745309177949635	0.3619620375934374	0.08858879135599448	0.1405215104154391	0.02859898145917326	0.1447833116082042	-0.5562647036287008	0.0009021309556967343	-0.1718123635048243	0.04906712521982799	-0.4791650531303954	-0.4791650531304756	-0.01431889962961575	3.098565868114268e-06	-0.09522446128823964	-0.04262907187752746	-0.287270440021914	0.04720513928257741	-0.002819587177537766	-0.3591683874299635	-0.05148867208014846	0.03405462592978887	0.3838376657648355	-65.6196003287799	-3.573935270240326	0.4279103756665044	15.82444534503072	-783.507527117231	-72.56742820937782	-0.2365492141196051	0.2478680117076719	0.01984516208063791	1.135451027803207	-3.44996951274709	0.08874808781651235	-1.478396235054413	1.049737319296846	-4.479029573239713	-4.479029573249182	-0.1856061250295313	0.007212116020848328	-1.588464816941622	-0.6203187365074811	-3.928142064859834e-08	-7.065164931287555e-08	1.943927146122574e-07	2.169330549164864e-08	-5.799705296505495e-08	2.922220324657231e-08	-3.75327567333389e-08
1.08	0.02160599721302576	-0.002739340016683294	0.7517758071136159	0.9718779922247528	-0.3393323505916834	0.02356313941674376	-0.9580061416820148	1.263370717348814	1.263370717349235	-0.08038612755564424	-0.1745308864667919	0.3609304564513369	0.0881313429862751	0.1429173800346399	0.02887270532318951	0.156066292812208	-0.5906516320362259	0.001764855698661359	-0.1864700871432118	0.0599364499875884	-0.5238808484666856	-0.5238808484668241	-0.01633091851183105	4.055900673662552e-06	-0.1110707859148489	-0.04883212387097187	-0.2865789261154201	0.04731663494723229	-0.002952920980147314	-0.35791152696751	-0.05120195425766035	0.03431097025941718	0.3837522848400026	-65.48266748231941	-3.757765166168408	0.5126433042008415	15.44242648715004	-783.2773686332075	-72.66348083707081	-0.2757953919914928	0.2344458140839106	0.03494583230859535	1.122163473522822	-3.433990416392649	0.07892119270114858	-1.44842467264935	1.120194865548505	-4.468080216187955	-4.468080216187396	-0.2302758274918442	-0.0144776806668014	-1.583252181198852	-0.6287987324100032	-4.197687335967373e-08	-8.604332751520892e-08	2.030283081642896e-07	2.14021385345571e-08	-6.135876248058477e-08	1.51881691183382e-08	-3.928850128208339e-08
